<svg width="32" height="32" viewBox="0 0 32 32" fill="none" xmlns="http://www.w3.org/2000/svg">
<path d="M10.064 17.136C9.91833 16.9838 9.80415 16.8044 9.728 16.608C9.56797 16.2185 9.56797 15.7815 9.728 15.392C9.80415 15.1956 9.91833 15.0162 10.064 14.864L14.864 10.064C15.1653 9.76272 15.5739 9.59346 16 9.59346C16.4261 9.59346 16.8347 9.76272 17.136 10.064C17.4373 10.3653 17.6065 10.7739 17.6065 11.2C17.6065 11.6261 17.4373 12.0347 17.136 12.336L15.056 14.4H20.8C21.2243 14.4 21.6313 14.5686 21.9314 14.8686C22.2314 15.1687 22.4 15.5757 22.4 16C22.4 16.4244 22.2314 16.8313 21.9314 17.1314C21.6313 17.4314 21.2243 17.6 20.8 17.6H15.056L17.136 19.664C17.286 19.8127 17.405 19.9897 17.4862 20.1847C17.5675 20.3797 17.6093 20.5888 17.6093 20.8C17.6093 21.0112 17.5675 21.2204 17.4862 21.4153C17.405 21.6103 17.286 21.7873 17.136 21.936C16.9873 22.086 16.8103 22.205 16.6153 22.2862C16.4203 22.3675 16.2112 22.4093 16 22.4093C15.7888 22.4093 15.5796 22.3675 15.3847 22.2862C15.1897 22.205 15.0127 22.086 14.864 21.936L10.064 17.136ZM0 16C0 12.8355 0.938385 9.74207 2.69649 7.11088C4.45459 4.4797 6.95344 2.42894 9.87706 1.21793C12.8007 0.00693254 16.0177 -0.309921 19.1214 0.307443C22.2251 0.924806 25.0761 2.44866 27.3137 4.6863C29.5513 6.92394 31.0752 9.77487 31.6926 12.8786C32.3099 15.9823 31.9931 19.1993 30.7821 22.1229C29.5711 25.0466 27.5203 27.5454 24.8891 29.3035C22.2579 31.0616 19.1645 32 16 32C11.7565 32 7.68687 30.3143 4.68629 27.3137C1.68571 24.3131 0 20.2435 0 16ZM28.8 16C28.8 13.4684 28.0493 10.9937 26.6428 8.88871C25.2363 6.78376 23.2372 5.14315 20.8983 4.17435C18.5594 3.20555 15.9858 2.95206 13.5028 3.44596C11.0199 3.93985 8.73914 5.15893 6.94903 6.94904C5.15892 8.73915 3.93984 11.0199 3.44595 13.5028C2.95206 15.9858 3.20554 18.5595 4.17434 20.8984C5.14314 23.2372 6.78375 25.2363 8.8887 26.6428C10.9936 28.0493 13.4684 28.8 16 28.8C19.3948 28.8 22.6505 27.4514 25.051 25.051C27.4514 22.6505 28.8 19.3948 28.8 16Z" fill="#A159FF"/>
</svg>
