<svg width="32" height="32" viewBox="0 0 32 32" fill="none" xmlns="http://www.w3.org/2000/svg">
<path d="M10.9669 31.18C14.2322 32.273 17.7646 32.2733 21.0301 31.1811C20.6153 31.3143 20.171 31.0861 20.0378 30.6712C20.0117 30.5901 19.9989 30.5052 20 30.4199C20 29.88 20.02 28.16 20.02 26.02C20.1068 24.9233 19.7127 23.8431 18.94 23.06C22.5 22.66 26.24 21.3001 26.24 15.1601C26.2663 13.5693 25.679 12.0295 24.6 10.8602C25.0892 9.47816 25.032 7.96148 24.44 6.62025C24.44 6.62025 23.1 6.18026 20.04 8.26023C17.422 7.54017 14.6581 7.54017 12.04 8.26023C8.97998 6.20029 7.64003 6.62025 7.64003 6.62025C7.04806 7.96148 6.99083 9.47816 7.48003 10.8602C6.4043 12.0315 5.81751 13.57 5.84003 15.1601C5.84003 21.2801 9.56003 22.66 13.12 23.06C12.5317 23.6261 12.1692 24.3866 12.1 25.2C10.4523 26.1234 8.36803 25.5362 7.44468 23.8885C7.44313 23.8857 7.44156 23.8829 7.44001 23.8801C6.93659 22.9649 6.01839 22.3528 4.97996 22.2401C3.64001 22.2601 4.44001 23.0001 4.99998 23.3001C5.72198 23.9092 6.28486 24.6848 6.64001 25.56C6.96001 26.46 8.00001 28.18 12.02 27.44C12.02 28.78 12.04 30.04 12.04 30.42C12.04 30.8344 11.7434 31.3019 10.9669 31.18Z" fill="#21004D"/>
<path d="M16 0C7.16347 0 0 7.16338 0 15.9998C0 23.0765 4.5995 29.0695 10.9683 31.1801C11.7436 31.3011 12.04 30.8342 12.04 30.42C12.04 30.04 12.02 28.7801 12.02 27.4401C8 28.1801 6.95997 26.4601 6.64003 25.5601C6.28486 24.6848 5.72197 23.9093 5 23.3002C4.44003 23.0002 3.64003 22.2602 4.97998 22.2401C6.01837 22.3528 6.93662 22.9649 7.44005 23.8801C7.44162 23.883 7.44317 23.8857 7.44474 23.8885C8.36808 25.5362 10.4523 26.1234 12.1 25.2C12.1692 24.3867 12.5318 23.6261 13.12 23.0601C9.56006 22.6601 5.84005 21.2801 5.84005 15.1602C5.81749 13.57 6.4043 12.0316 7.47998 10.8603C6.99082 9.4782 7.04805 7.96151 7.64003 6.62031C7.64003 6.62031 8.97997 6.2003 12.04 8.26033C14.6581 7.54022 17.422 7.54022 20.04 8.26033C23.1 6.18027 24.44 6.62031 24.44 6.62031C25.0319 7.96151 25.0892 9.47818 24.6 10.8603C25.6789 12.0296 26.2662 13.5693 26.24 15.1602C26.24 21.3001 22.5 22.6601 18.94 23.0601C19.7127 23.8431 20.1068 24.9234 20.02 26.0201C20.02 28.1601 20 29.8801 20 30.42C19.9989 30.5053 20.0116 30.5901 20.0377 30.6713C20.1708 31.0854 20.614 31.3132 21.0281 31.1813C27.3988 29.0719 32 23.0778 32 15.9998C32 7.16338 24.8365 0 16 0Z" fill="#57FFA0"/>
</svg>
