<svg width="32" height="32" viewBox="0 0 32 32" fill="none" xmlns="http://www.w3.org/2000/svg">
<path d="M9.70115 12.3377H4.86755V26.7871H9.70115V12.3377Z" fill="#21004D"/>
<path d="M7.28459 10.3649H7.25283C5.86405 10.4481 4.67032 9.39683 4.58656 8.01678C4.5028 6.63674 5.56073 5.45053 6.94953 5.3673C7.07186 5.35997 7.19455 5.36152 7.31662 5.37193C8.70482 5.27202 9.91168 6.30927 10.0122 7.68873C10.1128 9.06818 9.06898 10.2674 7.68077 10.3674C7.54886 10.3769 7.41637 10.376 7.28459 10.3649ZM27.1286 26.7869H22.2958V19.0578C22.2958 17.1151 21.596 15.7902 19.8475 15.7902C18.7304 15.7966 17.7379 16.4997 17.3675 17.5469C17.2436 17.9247 17.1897 18.3217 17.2083 18.7186V26.7869H12.3754C12.3754 26.7826 12.4387 13.6932 12.3758 12.3378H17.2087V14.3858C18.0994 12.8454 19.7784 11.9253 21.5646 11.9988C24.7445 11.9988 27.1286 14.064 27.1286 18.5021V26.7869Z" fill="#21004D"/>
<path d="M29.6348 0.000176263H2.36517C1.07531 -0.0152476 0.016697 1.01071 0 2.29244V29.7083C0.0167936 30.99 1.07541 32.0157 2.36517 31.9998H29.6348C30.9248 32.0158 31.9836 30.9898 32 29.7079V2.29244C31.9835 1.01061 30.9248 -0.0154555 29.6348 0.000176263ZM9.70117 26.7871H4.86754V12.3376H9.70117V26.7871ZM7.68084 10.3673C7.54886 10.3768 7.41639 10.376 7.2846 10.3649H7.25285C5.86405 10.4481 4.67029 9.39686 4.58657 8.0168C4.50284 6.63673 5.56077 5.45051 6.94958 5.36732C7.07184 5.35999 7.19458 5.36156 7.31664 5.37191C8.70487 5.272 9.91168 6.30931 10.0123 7.68878C10.1128 9.06814 9.06897 10.2675 7.68084 10.3673ZM27.1287 26.787H22.2958V19.0578C22.2958 17.115 21.596 15.7901 19.8475 15.7901C18.7304 15.7965 17.7379 16.4997 17.3675 17.547C17.2437 17.9247 17.1898 18.3216 17.2083 18.7186V26.787H12.3755C12.3755 26.7827 12.4388 13.6932 12.3759 12.3378H17.2088V14.3857C18.0994 12.8454 19.7784 11.9254 21.5647 11.9988C24.7446 11.9988 27.1287 14.0639 27.1287 18.5022V26.787Z" fill="#57FFA0"/>
</svg>
