<svg width="32" height="32" viewBox="0 0 32 32" fill="none" xmlns="http://www.w3.org/2000/svg">
<path d="M9.70104 12.3379H4.86743V26.7873H9.70104V12.3379Z" fill="#F8F3FF"/>
<path d="M7.28471 10.3644H7.25295C5.86417 10.4477 4.67044 9.39637 4.58668 8.01632C4.50292 6.63628 5.56085 5.45007 6.94966 5.36684C7.07198 5.35952 7.19467 5.36106 7.31674 5.37147C8.70495 5.27156 9.9118 6.30881 10.0124 7.68827C10.1129 9.06773 9.0691 10.267 7.6809 10.3669C7.54898 10.3764 7.41649 10.3756 7.28471 10.3644ZM27.1287 26.7865H22.2959V19.0573C22.2959 17.1146 21.5961 15.7897 19.8476 15.7897C18.7305 15.7961 17.738 16.4992 17.3676 17.5465C17.2437 17.9242 17.1898 18.3212 17.2084 18.7182V26.7865H12.3755C12.3755 26.7822 12.4389 13.6927 12.376 12.3373H17.2089V14.3853C18.0995 12.8449 19.7785 11.9249 21.5647 11.9983C24.7446 11.9983 27.1287 14.0636 27.1287 18.5017V26.7865Z" fill="#F8F3FF"/>
<path d="M29.6348 0.000176263H2.36517C1.07531 -0.0152476 0.016697 1.01071 0 2.29244V29.7083C0.0167936 30.99 1.07541 32.0157 2.36517 31.9998H29.6348C30.9248 32.0158 31.9836 30.9898 32 29.7079V2.29244C31.9835 1.01061 30.9248 -0.0154555 29.6348 0.000176263ZM9.70117 26.7871H4.86754V12.3376H9.70117V26.7871ZM7.68084 10.3673C7.54886 10.3768 7.41639 10.376 7.2846 10.3649H7.25285C5.86405 10.4481 4.67029 9.39686 4.58657 8.0168C4.50284 6.63673 5.56077 5.45051 6.94958 5.36732C7.07184 5.35999 7.19458 5.36156 7.31664 5.37191C8.70487 5.272 9.91168 6.30931 10.0123 7.68878C10.1128 9.06814 9.06897 10.2675 7.68084 10.3673ZM27.1287 26.787H22.2958V19.0578C22.2958 17.115 21.596 15.7901 19.8475 15.7901C18.7304 15.7965 17.7379 16.4997 17.3675 17.547C17.2437 17.9247 17.1898 18.3216 17.2083 18.7186V26.787H12.3755C12.3755 26.7827 12.4388 13.6932 12.3759 12.3378H17.2088V14.3857C18.0994 12.8454 19.7784 11.9254 21.5647 11.9988C24.7446 11.9988 27.1287 14.0639 27.1287 18.5022V26.787Z" fill="#21004D"/>
</svg>
