<svg width="39" height="32" viewBox="0 0 39 32" fill="none" xmlns="http://www.w3.org/2000/svg">
<path d="M39 3.78572C37.5399 4.43941 35.9909 4.86832 34.4048 5.05812C36.0756 4.04883 37.3259 2.46063 37.9227 0.589498C36.3522 1.53127 34.6334 2.19427 32.841 2.5497C31.7429 1.36893 30.3188 0.548538 28.7533 0.194938C27.1878 -0.158663 25.5531 -0.0291519 24.0614 0.56667C22.5697 1.16249 21.2897 2.19713 20.3875 3.53638C19.4853 4.87562 19.0026 6.45768 19.0019 8.07732C19.0012 8.69697 19.0703 9.31468 19.208 9.91855C16.0269 9.7576 12.9149 8.92308 10.074 7.46916C7.23303 6.01524 4.72668 3.97441 2.7176 1.47916C1.69457 3.25742 1.38112 5.36243 1.84104 7.36579C2.30095 9.36914 3.49967 11.1203 5.19324 12.2629C3.9226 12.2231 2.67984 11.8769 1.56885 11.253V11.3551C1.5691 13.2201 2.20827 15.0276 3.37796 16.4711C4.54765 17.9146 6.17585 18.9052 7.98644 19.2749C7.2995 19.464 6.59052 19.5593 5.87849 19.558C5.37318 19.558 4.86897 19.5104 4.37243 19.4158C4.88373 21.0204 5.87883 22.4236 7.21864 23.4293C8.55845 24.4349 10.176 24.9928 11.8452 25.025C8.49021 27.6773 4.23102 28.8796 0 28.3687C3.65784 30.7429 7.91549 32.0033 12.264 31.9995C15.2591 32.0202 18.2284 31.44 20.9994 30.2924C23.7704 29.1448 26.288 27.4527 28.4059 25.3145C30.5238 23.1763 32.1997 20.6345 33.3364 17.8368C34.473 15.0391 35.0478 12.0413 35.0272 9.01743C35.0272 8.667 35.019 8.31873 35.0028 7.97264C36.5708 6.8276 37.9243 5.40983 39 3.78572Z" fill="#21004D"/>
</svg>
