<svg width="32" height="32" viewBox="0 0 32 32" fill="none" xmlns="http://www.w3.org/2000/svg">
<path d="M10.9669 31.1797C14.2322 32.2727 17.7646 32.273 21.0301 31.1808C20.6153 31.314 20.171 31.0858 20.0378 30.6709C20.0117 30.5898 19.9989 30.5049 20 30.4196C20 29.8797 20.02 28.1597 20.02 26.0197C20.1068 24.923 19.7127 23.8428 18.94 23.0597C22.5 22.6597 26.24 21.2998 26.24 15.1598C26.2663 13.569 25.679 12.0292 24.6 10.8599C25.0892 9.47786 25.032 7.96117 24.44 6.61994C24.44 6.61994 23.1 6.17995 20.04 8.25992C17.422 7.53987 14.6581 7.53987 12.04 8.25992C8.97998 6.19998 7.64003 6.61994 7.64003 6.61994C7.04806 7.96117 6.99083 9.47786 7.48003 10.8599C6.4043 12.0312 5.81751 13.5697 5.84003 15.1598C5.84003 21.2798 9.56003 22.6597 13.12 23.0597C12.5317 23.6258 12.1692 24.3863 12.1 25.1997C10.4523 26.1231 8.36803 25.5359 7.44468 23.8882C7.44313 23.8854 7.44156 23.8826 7.44001 23.8798C6.93659 22.9646 6.01839 22.3525 4.97996 22.2398C3.64001 22.2598 4.44001 22.9998 4.99998 23.2998C5.72198 23.9089 6.28486 24.6845 6.64001 25.5597C6.96001 26.4597 8.00001 28.1797 12.02 27.4397C12.02 28.7797 12.04 30.0397 12.04 30.4196C12.04 30.8341 11.7434 31.3016 10.9669 31.1797Z" fill="#F8F3FF"/>
<path d="M16 0C7.16347 0 0 7.16338 0 15.9998C0 23.0765 4.5995 29.0695 10.9683 31.1801C11.7436 31.3011 12.04 30.8342 12.04 30.42C12.04 30.04 12.02 28.7801 12.02 27.4401C8 28.1801 6.95997 26.4601 6.64003 25.5601C6.28486 24.6848 5.72197 23.9093 5 23.3002C4.44003 23.0002 3.64003 22.2602 4.97998 22.2401C6.01837 22.3528 6.93662 22.9649 7.44005 23.8801C7.44162 23.883 7.44317 23.8857 7.44474 23.8885C8.36808 25.5362 10.4523 26.1234 12.1 25.2C12.1692 24.3867 12.5318 23.6261 13.12 23.0601C9.56006 22.6601 5.84005 21.2801 5.84005 15.1602C5.81749 13.57 6.4043 12.0316 7.47998 10.8603C6.99082 9.4782 7.04805 7.96151 7.64003 6.62031C7.64003 6.62031 8.97997 6.2003 12.04 8.26033C14.6581 7.54022 17.422 7.54022 20.04 8.26033C23.1 6.18027 24.44 6.62031 24.44 6.62031C25.0319 7.96151 25.0892 9.47818 24.6 10.8603C25.6789 12.0296 26.2662 13.5693 26.24 15.1602C26.24 21.3001 22.5 22.6601 18.94 23.0601C19.7127 23.8431 20.1068 24.9234 20.02 26.0201C20.02 28.1601 20 29.8801 20 30.42C19.9989 30.5053 20.0116 30.5901 20.0377 30.6713C20.1708 31.0854 20.614 31.3132 21.0281 31.1813C27.3988 29.0719 32 23.0778 32 15.9998C32 7.16338 24.8365 0 16 0Z" fill="#21004D"/>
</svg>
